<?xml version="1.0" standalone="no"?>
<!DOCTYPE svg PUBLIC "-//W3C//DTD SVG 20010904//EN"
 "http://www.w3.org/TR/2001/REC-SVG-20010904/DTD/svg10.dtd">
<svg version="1.0" xmlns="http://www.w3.org/2000/svg"
 width="512.000000pt" height="512.000000pt" viewBox="0 0 512.000000 512.000000"
 preserveAspectRatio="xMidYMid meet">

<g transform="translate(0.000000,512.000000) scale(0.100000,-0.100000)"
fill="#000000" stroke="none">
<path d="M560 4560 l0 -560 560 0 560 0 0 560 0 560 -560 0 -560 0 0 -560z
m960 0 l0 -400 -400 0 -400 0 0 400 0 400 400 0 400 0 0 -400z"/>
<path d="M2080 3920 l0 -1200 560 0 560 0 0 1200 0 1200 -560 0 -560 0 0
-1200z m960 0 l0 -1040 -400 0 -400 0 0 1040 0 1040 400 0 400 0 0 -1040z"/>
<path d="M3600 2320 l0 -1800 560 0 560 0 0 1800 0 1800 -560 0 -560 0 0
-1800z m960 0 l0 -1640 -400 0 -400 0 0 1640 0 1640 400 0 400 0 0 -1640z"/>
<path d="M560 960 l0 -960 560 0 560 0 0 960 0 960 -560 0 -560 0 0 -960z
m960 0 l0 -800 -400 0 -400 0 0 800 0 800 400 0 400 0 0 -800z"/>
</g>
</svg>
