<?xml version="1.0" standalone="no"?>
<!DOCTYPE svg PUBLIC "-//W3C//DTD SVG 20010904//EN"
 "http://www.w3.org/TR/2001/REC-SVG-20010904/DTD/svg10.dtd">
<svg version="1.0" xmlns="http://www.w3.org/2000/svg"
 width="512.000000pt" height="512.000000pt" viewBox="0 0 512.000000 512.000000"
 preserveAspectRatio="xMidYMid meet">

<g transform="translate(0.000000,512.000000) scale(0.100000,-0.100000)"
fill="#000000" stroke="none">
<path d="M2350 5089 c-157 -90 -345 -355 -483 -679 -35 -83 -147 -391 -147
-405 0 -2 128 -25 226 -40 81 -13 327 -35 392 -35 l72 0 0 595 c0 327 -1 595
-2 595 -2 0 -28 -14 -58 -31z"/>
<path d="M2710 4522 l0 -600 63 4 c259 18 607 61 623 77 2 2 -19 71 -47 153
-133 385 -281 655 -452 827 -45 45 -106 95 -134 110 l-53 28 0 -599z"/>
<path d="M1760 4986 c-163 -56 -213 -76 -345 -143 -130 -65 -258 -143 -373
-229 -87 -64 -292 -242 -292 -253 0 -15 269 -150 383 -193 93 -35 290 -98 294
-95 1 2 23 63 49 137 95 275 199 491 331 688 46 69 82 126 81 128 -2 1 -59
-17 -128 -40z"/>
<path d="M3230 5025 c0 -1 38 -59 84 -127 131 -197 235 -413 330 -688 26 -74
48 -136 50 -137 4 -4 234 72 318 106 93 37 257 117 318 156 l44 28 -54 49
c-323 291 -629 471 -1002 588 -49 16 -88 27 -88 25z"/>
<path d="M535 4116 c-196 -280 -301 -475 -391 -726 -65 -182 -118 -421 -139
-627 l-6 -63 605 0 606 0 4 23 c3 12 7 81 11 152 10 235 49 532 100 778 14 64
25 119 25 122 0 2 -55 22 -122 44 -228 72 -421 158 -594 262 -45 27 -83 49
-85 49 -2 0 -9 -6 -14 -14z"/>
<path d="M4500 4089 c-166 -103 -397 -206 -612 -274 -65 -20 -118 -38 -118
-40 0 -1 13 -67 29 -146 50 -242 86 -528 96 -754 4 -71 8 -140 11 -152 l4 -23
606 0 605 0 -6 63 c-44 444 -192 852 -441 1222 -81 120 -99 145 -105 145 -2
-1 -33 -19 -69 -41z"/>
<path d="M1640 3706 c0 -2 -9 -48 -20 -102 -48 -229 -84 -512 -95 -729 -3 -66
-8 -132 -10 -147 l-4 -28 449 0 450 0 0 465 0 465 -67 0 c-132 0 -515 42 -638
70 -44 10 -65 12 -65 6z"/>
<path d="M3390 3694 c-173 -32 -447 -63 -565 -64 -38 0 -80 -3 -92 -6 l-23 -6
0 -459 0 -459 450 0 450 0 -5 28 c-2 15 -7 81 -10 147 -11 217 -47 500 -95
729 -11 54 -20 100 -20 102 0 5 3 5 -90 -12z"/>
<path d="M5 2338 c46 -456 200 -862 479 -1260 33 -48 64 -88 68 -88 3 0 42 22
85 49 164 101 363 190 590 263 68 21 123 41 123 44 0 2 -11 57 -25 120 -49
227 -89 534 -100 764 -4 69 -8 135 -11 148 l-4 22 -606 0 -605 0 6 -62z"/>
<path d="M1518 2328 c6 -136 33 -413 53 -543 20 -128 67 -366 73 -372 2 -2 57
5 122 17 164 28 350 48 509 56 l135 7 0 454 0 453 -448 0 -448 0 4 -72z"/>
<path d="M2710 1946 l0 -453 136 -7 c74 -4 142 -10 150 -13 11 -4 14 5 14 44
0 296 131 604 351 822 l62 61 -357 0 -356 0 0 -454z"/>
<path d="M4053 2386 c-348 -67 -622 -319 -714 -661 -29 -104 -32 -324 -6 -428
37 -147 72 -209 427 -742 371 -556 370 -555 451 -555 77 0 83 6 447 543 188
278 358 539 377 579 157 330 90 727 -169 996 -113 119 -271 211 -431 252 -104
27 -285 34 -382 16z m238 -446 c235 -45 399 -275 361 -506 -32 -196 -180 -344
-376 -376 -289 -48 -556 219 -508 508 42 252 277 420 523 374z"/>
<path d="M4138 1629 c-43 -22 -78 -81 -78 -129 0 -17 9 -49 20 -70 23 -45 80
-80 130 -80 76 0 150 74 150 150 0 50 -35 107 -80 130 -49 25 -94 25 -142 -1z"/>
<path d="M2160 1179 c-157 -14 -427 -54 -438 -64 -5 -5 103 -305 150 -415 140
-327 329 -590 486 -673 l52 -28 0 595 0 596 -82 -1 c-46 -1 -121 -5 -168 -10z"/>
<path d="M2710 596 l0 -597 28 15 c155 80 303 266 454 573 l80 162 -50 73
c-61 91 -102 171 -137 269 l-27 77 -46 6 c-26 4 -104 9 -174 13 l-128 6 0
-597z"/>
<path d="M1275 1001 c-77 -26 -165 -58 -195 -70 -70 -29 -301 -148 -318 -165
-11 -11 7 -32 105 -119 262 -234 519 -399 788 -507 79 -32 227 -81 231 -77 2
1 -27 47 -64 102 -124 187 -236 427 -347 748 -26 75 -51 137 -54 136 -3 0 -69
-22 -146 -48z"/>
<path d="M3404 373 c-26 -49 -76 -130 -111 -182 -35 -51 -63 -95 -61 -96 11
-11 381 133 376 145 -8 20 -144 220 -150 220 -3 0 -28 -39 -54 -87z"/>
</g>
</svg>
